# Blender 5.1.1
# www.blender.org
mtllib bark1.mtl
o Bark_Bark_0
v -0.000000 0.397461 -15.457273
v -0.000000 81.814117 -12.684149
v 9.480906 81.814117 -8.757028
v 11.441800 0.397461 -10.717922
v 11.441800 0.397461 -10.717922
v 9.480906 81.814117 -8.757028
v 13.408027 81.814117 0.723878
v 16.181150 0.397461 0.723878
v 16.181150 0.397461 0.723878
v 13.408027 81.814117 0.723878
v 9.480906 81.814117 10.204783
v 11.441800 0.397461 12.165678
v 11.441800 0.397461 12.165678
v 9.480906 81.814117 10.204783
v -0.000000 81.814117 14.131905
v -0.000000 0.397461 16.905029
v -0.000000 0.397461 16.905029
v -0.000000 81.814117 14.131905
v -9.480907 81.814117 10.204783
v -11.441802 0.397461 12.165678
v -11.441802 0.397461 12.165678
v -9.480907 81.814117 10.204783
v -13.408027 81.814117 0.723878
v -16.181150 0.397461 0.723878
v -0.000000 81.814117 14.131905
v 9.480906 81.814117 10.204783
v 7.762392 165.050964 6.627935
v -0.000000 164.582947 9.808977
v -16.181150 0.397461 0.723878
v -13.408027 81.814117 0.723878
v -9.480907 81.814117 -8.757028
v -11.441802 0.397461 -10.717922
v -11.441802 0.397461 -10.717922
v -9.480907 81.814117 -8.757028
v -0.000000 81.814117 -12.684149
v -0.000000 0.397461 -15.457273
v -0.000000 167.778854 -11.912530
v -7.762392 167.310837 -8.731489
v -7.762369 282.810974 -0.862483
v 0.000023 282.606445 -4.071258
v -9.480907 81.814117 -8.757028
v -13.408027 81.814117 0.723878
v -10.977679 166.180908 -1.051777
v -7.762392 167.310837 -8.731489
v 13.408027 81.814117 0.723878
v 13.408027 81.814117 0.723878
v 9.480906 81.814117 -8.757028
v 7.762392 167.310837 -8.731489
v 7.762392 167.310837 -8.731489
v 10.977679 166.180908 -1.051777
v -9.480907 81.814117 10.204783
v -0.000000 81.814117 14.131905
v -0.000000 164.582947 9.808977
v -7.762392 165.050964 6.627935
v -0.000000 81.814117 -12.684149
v -9.480907 81.814117 -8.757028
v -7.762392 167.310837 -8.731489
v -0.000000 167.778854 -11.912530
v 9.480906 81.814117 -8.757028
v -0.000000 81.814117 -12.684149
v -0.000000 167.778854 -11.912530
v 7.762392 167.310837 -8.731489
v 9.480906 81.814117 10.204783
v 13.408027 81.814117 0.723878
v 10.977679 166.180908 -1.051777
v 7.762392 165.050964 6.627935
v -13.408027 81.814117 0.723878
v -9.480907 81.814117 10.204783
v -7.762392 165.050964 6.627935
v -10.977679 166.180908 -1.051777
v -7.762369 283.798523 14.630861
v -7.762369 283.798523 14.630861
v 0.000023 284.003052 17.839634
v 0.001909 407.277802 7.818839
v 0.001909 407.277802 7.818839
v -5.606246 407.177521 5.499553
v -10.977679 166.180908 -1.051777
v -7.762392 165.050964 6.627935
v -7.762369 283.798523 14.630861
v -10.977655 283.304718 6.884192
v -0.000000 164.582947 9.808977
v 7.762392 165.050964 6.627935
v 7.762414 283.798523 14.630861
v 0.000023 284.003052 17.839634
v 10.977679 166.180908 -1.051777
v 7.762392 167.310837 -8.731489
v 7.762414 282.810974 -0.862483
v 10.977700 283.304718 6.884192
v -7.762392 167.310837 -8.731489
v -10.977679 166.180908 -1.051777
v -10.977655 283.304718 6.884192
v -7.762369 282.810974 -0.862483
v -7.762392 165.050964 6.627935
v -0.000000 164.582947 9.808977
v 0.000023 284.003052 17.839634
v -7.762369 283.798523 14.630861
v 7.762392 165.050964 6.627935
v 10.977679 166.180908 -1.051777
v 10.977700 283.304718 6.884192
v 7.762414 283.798523 14.630861
v 7.762392 167.310837 -8.731489
v -0.000000 167.778854 -11.912530
v 0.000023 282.606445 -4.071258
v 7.762414 282.810974 -0.862483
v 7.762414 283.798523 14.630861
v 10.977700 283.304718 6.884192
v 7.930371 406.870911 -0.102995
v 5.608959 407.150818 5.498190
v 7.762414 282.810974 -0.862483
v 7.762414 282.810974 -0.862483
v 0.000023 282.606445 -4.071258
v -0.001863 406.501770 -8.022905
v -0.001863 406.501770 -8.022905
v 5.606290 406.602112 -5.703619
v 0.000023 282.606445 -4.071258
v 0.000023 282.606445 -4.071258
v -7.762369 282.810974 -0.862483
v -5.608914 406.628754 -5.702257
v -5.608914 406.628754 -5.702257
v -0.001863 406.501770 -8.022905
v -10.977655 283.304718 6.884192
v -10.977655 283.304718 6.884192
v -7.762369 283.798523 14.630861
v -5.606246 407.177521 5.499553
v -5.606246 407.177521 5.499553
v -7.930324 406.908661 -0.101068
v 0.000023 284.003052 17.839634
v 0.000023 284.003052 17.839634
v 7.762414 283.798523 14.630861
v 5.608959 407.150818 5.498190
v 5.608959 407.150818 5.498190
v 0.001909 407.277802 7.818839
v 10.977700 283.304718 6.884192
v 10.977700 283.304718 6.884192
v 7.762414 282.810974 -0.862483
v 5.606290 406.602112 -5.703619
v 5.606290 406.602112 -5.703619
v 7.930371 406.870911 -0.102995
v -7.762369 282.810974 -0.862483
v -7.762369 282.810974 -0.862483
v -10.977655 283.304718 6.884192
v -7.930324 406.908661 -0.101068
v -7.930324 406.908661 -0.101068
v -5.608914 406.628754 -5.702257
v -0.000000 0.397461 -15.457273
v 11.441800 0.397461 -10.717922
v 16.181150 0.397461 0.723878
v 11.441800 0.397461 12.165678
v -0.000000 0.397461 16.905029
v -11.441802 0.397461 12.165678
v -16.181150 0.397461 0.723878
v -11.441802 0.397461 -10.717922
v 5.606290 406.602112 -5.703619
v -0.001863 406.501770 -8.022905
v -5.608914 406.628754 -5.702257
v -7.930324 406.908661 -0.101068
v -5.606246 407.177521 5.499553
v 0.001909 407.277802 7.818839
v 5.608959 407.150818 5.498190
v 7.930371 406.870911 -0.102995
vn 0.3825 0.0315 -0.9234
vn 0.9234 0.0315 -0.3825
vn 0.9234 0.0315 0.3825
vn 0.3825 0.0315 0.9234
vn -0.3825 0.0315 0.9234
vn -0.9234 0.0315 0.3825
vn 0.3796 0.0479 0.9239
vn 0.3795 0.0479 0.9240
vn -0.9234 0.0315 -0.3825
vn -0.3825 0.0315 -0.9234
vn -0.3810 0.0629 -0.9224
vn -0.3809 0.0629 -0.9225
vn -0.3805 0.0629 -0.9227
vn -0.3807 0.0629 -0.9226
vn -0.9237 0.0186 -0.3827
vn -0.9236 0.0186 -0.3829
vn -0.9235 0.0186 -0.3833
vn -0.9235 0.0186 -0.3831
vn 0.9236 0.0186 -0.3829
vn -0.3796 0.0479 0.9239
vn -0.3813 0.0081 -0.9244
vn 0.3813 0.0081 -0.9244
vn 0.3814 0.0081 -0.9244
vn 0.3812 0.0081 -0.9245
vn 0.9218 0.0351 0.3860
vn -0.9219 0.0352 0.3859
vn -0.9218 0.0351 0.3860
vn -0.3826 0.0749 0.9209
vn -0.3822 0.0748 0.9210
vn -0.9231 -0.0259 0.3836
vn -0.9231 -0.0259 0.3837
vn -0.9230 -0.0259 0.3838
vn 0.3806 -0.0621 0.9226
vn 0.3811 -0.0621 0.9224
vn 0.3808 -0.0621 0.9226
vn 0.3807 -0.0621 0.9226
vn 0.9231 0.0261 -0.3837
vn 0.9230 0.0261 -0.3838
vn 0.9231 0.0261 -0.3838
vn -0.9231 0.0261 -0.3837
vn -0.9231 0.0261 -0.3838
vn -0.3808 -0.0621 0.9226
vn -0.3810 -0.0621 0.9225
vn -0.3807 -0.0621 0.9226
vn 0.9231 -0.0259 0.3837
vn 0.9230 -0.0259 0.3839
vn 0.9231 -0.0259 0.3838
vn 0.3807 0.0629 -0.9225
vn 0.3808 0.0629 -0.9225
vn 0.3806 0.0629 -0.9226
vn 0.9237 0.0443 0.3806
vn 0.3825 -0.0294 -0.9235
vn 0.3824 -0.0295 -0.9235
vn -0.3825 -0.0294 -0.9235
vn -0.3828 -0.0295 -0.9234
vn -0.9236 0.0443 0.3809
vn -0.9237 0.0443 0.3805
vn 0.3826 0.0749 0.9209
vn 0.3828 0.0748 0.9208
vn 0.9236 0.0011 -0.3834
vn 0.9236 0.0011 -0.3833
vn -0.9236 0.0011 -0.3834
vn -0.9238 0.0011 -0.3829
vn -0.0000 -1.0000 -0.0000
vn 0.0024 0.9988 -0.0489
vt 0.500000 0.953473
vt 0.500000 0.753374
vt 0.523301 0.753374
vt 0.528121 0.953473
vt 0.530358 0.953473
vt 0.525539 0.753374
vt 0.502237 0.753374
vt 0.502237 0.953473
vt 0.478936 0.753374
vt 0.474116 0.953473
vt 0.476699 0.753374
vt 0.471879 0.953473
vt 0.519078 0.548800
vt 0.500000 0.549951
vt 0.500000 0.542096
vt 0.480922 0.543246
vt 0.480922 0.259379
vt 0.500000 0.259881
vt 0.506601 0.546023
vt 0.525476 0.543246
vt 0.480922 0.548800
vt 0.519078 0.543246
vt 0.487727 0.548800
vt 0.480922 0.256952
vt 0.500000 0.256449
vt 0.500005 -0.046527
vt 0.486221 -0.046280
vt 0.468058 0.256952
vt 0.487097 0.258165
vt 0.519078 0.256952
vt 0.506136 0.259379
vt 0.519078 0.259379
vt 0.504269 -0.045527
vt 0.490503 -0.046214
vt 0.499995 -0.044619
vt 0.513779 -0.044866
vt 0.486215 -0.044931
vt 0.490500 -0.046280
vt 0.504265 -0.045619
vt 0.513785 -0.046214
vt 0.518034 -0.044866
vt 0.518031 -0.044931
vt 0.528121 0.469642
vt 0.471879 0.469642
vt 0.500000 0.457994
vt 0.539769 0.497763
vt 0.460231 0.497763
vt 0.528121 0.525884
vt 0.471879 0.525884
vt 0.500000 0.537532
vt 0.486215 0.481969
vt 0.513779 0.481966
vt 0.499995 0.476266
vt 0.519491 0.495731
vt 0.480509 0.495735
vt 0.513785 0.509497
vt 0.486221 0.509500
vt 0.500005 0.515200
s 0
usemtl Bark.001
f 1/1/1 2/2/1 3/3/1
f 1/1/1 3/3/1 4/4/1
f 5/5/2 6/6/2 7/7/2
f 5/5/2 7/7/2 8/8/2
f 9/8/3 10/7/3 11/9/3
f 9/8/3 11/9/3 12/10/3
f 13/4/4 14/3/4 15/2/4
f 13/4/4 15/2/4 16/1/4
f 17/1/5 18/2/5 19/11/5
f 17/1/5 19/11/5 20/12/5
f 21/10/6 22/9/6 23/7/6
f 21/10/6 23/7/6 24/8/6
s 1
f 25/2/7 26/3/7 27/13/8
f 25/2/7 27/13/8 28/14/7
s 0
f 29/8/9 30/7/9 31/6/9
f 29/8/9 31/6/9 32/5/9
f 33/12/10 34/11/10 35/2/10
f 33/12/10 35/2/10 36/1/10
s 1
f 37/15/11 38/16/12 39/17/13
f 37/15/11 39/17/13 40/18/14
f 41/6/15 42/7/16 43/19/17
f 41/6/15 43/19/17 44/20/18
s 0
f 45/7/19 47/6/19 48/20/19
s 1
f 46/7/19 49/20/19 50/19/19
f 51/11/20 52/2/20 53/14/20
f 51/11/20 53/14/20 54/21/20
f 55/2/21 56/11/21 57/16/21
f 55/2/21 57/16/21 58/15/21
f 59/3/22 60/2/23 61/15/24
f 59/3/22 61/15/24 62/22/22
f 63/9/25 64/7/25 65/19/25
f 63/9/25 65/19/25 66/23/25
f 67/7/26 68/9/27 69/23/27
f 67/7/26 69/23/27 70/19/27
s 0
f 72/24/28 73/25/28 75/26/28
f 71/24/29 74/26/29 76/27/29
s 1
f 77/19/30 78/23/31 79/28/32
f 77/19/30 79/28/32 80/29/31
f 81/14/33 82/13/34 83/30/35
f 81/14/33 83/30/35 84/25/36
f 85/19/37 86/20/37 87/31/38
f 85/19/37 87/31/38 88/29/39
f 89/20/40 90/19/41 91/29/40
f 89/20/40 91/29/40 92/31/41
f 93/21/42 94/14/43 95/25/42
f 93/21/42 95/25/42 96/24/44
f 97/23/45 98/19/46 99/29/45
f 97/23/45 99/29/45 100/28/47
f 101/22/48 102/15/49 103/18/50
f 101/22/48 103/18/50 104/32/50
s 0
f 105/28/51 106/29/51 107/33/51
f 105/28/51 107/33/51 108/34/51
f 110/32/52 111/18/52 113/35/52
f 109/32/53 112/35/53 114/36/53
f 115/18/54 117/17/54 118/37/54
f 116/18/55 119/37/55 120/35/55
f 121/29/56 123/28/56 124/38/56
s 1
f 122/29/57 125/38/57 126/39/57
s 0
f 127/25/58 129/30/58 130/40/58
f 128/25/59 131/40/59 132/26/59
f 133/29/60 135/31/60 136/41/60
f 134/29/61 137/41/61 138/33/61
f 139/31/62 141/29/62 142/39/62
f 140/31/63 143/39/63 144/42/63
f 146/43/64 152/44/64 145/45/64
f 152/44/64 146/43/64 147/46/64
f 152/44/64 147/46/64 151/47/64
f 151/47/64 147/46/64 148/48/64
f 151/47/64 148/48/64 150/49/64
f 150/49/64 148/48/64 149/50/64
f 155/51/65 153/52/65 154/53/65
f 153/52/65 155/51/65 160/54/65
f 160/54/65 155/51/65 156/55/65
f 160/54/65 156/55/65 159/56/65
f 159/56/65 156/55/65 157/57/65
f 159/56/65 157/57/65 158/58/65
