# Blender 5.1.1
# www.blender.org
mtllib bark2.mtl
o Bark.1_Bark_0
v 0.000000 0.010707 -0.368201
v 0.000000 0.010707 -0.368201
v -0.000000 1.213546 -0.242515
v 0.171527 1.211955 -0.171484
v 0.171527 1.211955 -0.171484
v 0.260357 0.010707 -0.260357
v 0.260357 0.010707 -0.260357
v 0.171527 1.211955 -0.171484
v 0.242576 1.208114 0.000000
v 0.368201 0.010707 0.000000
v 0.368201 0.010707 0.000000
v 0.242576 1.208114 0.000000
v 0.171527 1.204273 0.171484
v 0.260357 0.010707 0.260357
v 0.260357 0.010707 0.260357
v 0.171527 1.204273 0.171484
v -0.000000 1.202682 0.242515
v 0.000000 0.010707 0.368201
v 0.000000 0.010707 0.368201
v 0.000000 0.010707 0.368201
v -0.000000 1.202682 0.242515
v -0.171527 1.204273 0.171484
v -0.171527 1.204273 0.171484
v -0.260357 0.010707 0.260357
v -0.260357 0.010707 0.260357
v -0.171527 1.204273 0.171484
v -0.242576 1.208114 0.000000
v -0.368201 0.010707 0.000000
v -0.000000 1.202682 0.242515
v 0.171527 1.204273 0.171484
v 0.129228 2.251220 0.152626
v 0.000000 2.250021 0.206141
v -0.368201 0.010707 0.000000
v -0.242576 1.208114 0.000000
v -0.171527 1.211955 -0.171484
v -0.260357 0.010707 -0.260357
v -0.260357 0.010707 -0.260357
v -0.260357 0.010707 -0.260357
v -0.171527 1.211955 -0.171484
v -0.000000 1.213546 -0.242515
v -0.000000 1.213546 -0.242515
v 0.000000 0.010707 -0.368201
v 0.129228 2.257007 -0.105765
v 0.129228 2.257007 -0.105765
v 0.000000 2.258206 -0.159280
v -0.000000 3.435451 -0.129365
v -0.000000 3.435451 -0.129365
v 0.090171 3.437971 -0.092099
v -0.171527 1.211955 -0.171484
v -0.242576 1.208114 0.000000
v -0.182756 2.254113 0.023430
v -0.129228 2.257007 -0.105765
v 0.242576 1.208114 0.000000
v 0.171527 1.211955 -0.171484
v 0.129228 2.257007 -0.105765
v 0.182756 2.254113 0.023430
v -0.171527 1.204273 0.171484
v -0.000000 1.202682 0.242515
v 0.000000 2.250021 0.206141
v -0.129228 2.251220 0.152626
v -0.000000 1.213546 -0.242515
v -0.171527 1.211955 -0.171484
v -0.129228 2.257007 -0.105765
v 0.000000 2.258206 -0.159280
v 0.171527 1.211955 -0.171484
v -0.000000 1.213546 -0.242515
v 0.000000 2.258206 -0.159280
v 0.129228 2.257007 -0.105765
v 0.171527 1.204273 0.171484
v 0.242576 1.208114 0.000000
v 0.182756 2.254113 0.023430
v 0.129228 2.251220 0.152626
v -0.242576 1.208114 0.000000
v -0.171527 1.204273 0.171484
v -0.129228 2.251220 0.152626
v -0.182756 2.254113 0.023430
v -0.090172 3.437971 -0.092099
v -0.127522 3.444054 -0.002133
v -0.080284 3.778140 -0.011237
v -0.056769 3.774311 -0.067878
v 0.000000 2.258206 -0.159280
v -0.129228 2.257007 -0.105765
v -0.090172 3.437971 -0.092099
v -0.000000 3.435451 -0.129365
v -0.182756 2.254113 0.023430
v -0.129228 2.251220 0.152626
v -0.090172 3.450137 0.087833
v -0.127522 3.444054 -0.002133
v 0.000000 2.250021 0.206141
v 0.129228 2.251220 0.152626
v 0.090171 3.450137 0.087833
v -0.000000 3.452656 0.125098
v 0.182756 2.254113 0.023430
v 0.129228 2.257007 -0.105765
v 0.090171 3.437971 -0.092099
v 0.127522 3.444054 -0.002133
v -0.129228 2.257007 -0.105765
v -0.182756 2.254113 0.023430
v -0.127522 3.444054 -0.002133
v -0.090172 3.437971 -0.092099
v -0.129228 2.251220 0.152626
v -0.129228 2.251220 0.152626
v 0.000000 2.250021 0.206141
v -0.000000 3.452656 0.125098
v -0.000000 3.452656 0.125098
v -0.090172 3.450137 0.087833
v 0.129228 2.251220 0.152626
v 0.182756 2.254113 0.023430
v 0.127522 3.444054 -0.002133
v 0.090171 3.450137 0.087833
v -0.090172 3.450137 0.087833
v -0.000000 3.452656 0.125098
v -0.000000 3.783556 0.068864
v -0.056769 3.781970 0.045403
v 0.090171 3.450137 0.087833
v 0.127522 3.444054 -0.002133
v 0.080284 3.778140 -0.011237
v 0.056769 3.781970 0.045403
v 0.090171 3.437971 -0.092099
v -0.000000 3.435451 -0.129365
v -0.000000 3.772725 -0.091339
v 0.056769 3.774311 -0.067878
v -0.000000 3.435451 -0.129365
v -0.090172 3.437971 -0.092099
v -0.056769 3.774311 -0.067878
v -0.000000 3.772725 -0.091339
v -0.127522 3.444054 -0.002133
v -0.090172 3.450137 0.087833
v -0.056769 3.781970 0.045403
v -0.080284 3.778140 -0.011237
v -0.000000 3.452656 0.125098
v 0.090171 3.450137 0.087833
v 0.056769 3.781970 0.045403
v -0.000000 3.783556 0.068864
v 0.127522 3.444054 -0.002133
v 0.090171 3.437971 -0.092099
v 0.056769 3.774311 -0.067878
v 0.080284 3.778140 -0.011237
v 0.000000 0.010707 -0.368201
v 0.260357 0.010707 -0.260357
v 0.368201 0.010707 0.000000
v 0.260357 0.010707 0.260357
v 0.000000 0.010707 0.368201
v -0.260357 0.010707 0.260357
v -0.368201 0.010707 0.000000
v -0.260357 0.010707 -0.260357
v 0.056769 3.774311 -0.067878
v 0.056769 3.774311 -0.067878
v -0.000000 3.772725 -0.091339
v -0.056769 3.774311 -0.067878
v -0.056769 3.774311 -0.067878
v -0.080284 3.778140 -0.011237
v -0.056769 3.781970 0.045403
v -0.056769 3.781970 0.045403
v -0.000000 3.783556 0.068864
v 0.056769 3.781970 0.045403
v 0.056769 3.781970 0.045403
v 0.080284 3.778140 -0.011237
vn 0.3816 0.0961 -0.9193
vn 0.3809 0.0962 -0.9196
vn 0.9199 0.0963 -0.3802
vn 0.9200 0.0963 -0.3800
vn 0.9198 0.0963 -0.3803
vn 0.9193 0.0966 0.3815
vn 0.9192 0.0966 0.3816
vn 0.9192 0.0966 0.3818
vn 0.9193 0.0967 0.3814
vn 0.3808 0.0969 0.9196
vn 0.3806 0.0969 0.9197
vn 0.3809 0.0970 0.9195
vn -0.3805 0.0969 0.9197
vn -0.3803 0.0969 0.9198
vn -0.9195 0.0965 0.3811
vn -0.9192 0.0966 0.3817
vn -0.9193 0.0966 0.3814
vn 0.3822 0.0321 0.9235
vn -0.9198 0.0963 -0.3804
vn -0.9198 0.0963 -0.3803
vn -0.9199 0.0963 -0.3802
vn -0.3816 0.0962 -0.9193
vn -0.3813 0.0962 -0.9194
vn 0.3827 0.0235 -0.9236
vn 0.3821 0.0234 -0.9238
vn -0.9226 0.0613 -0.3809
vn 0.9226 0.0613 -0.3809
vn -0.3822 0.0321 0.9235
vn -0.3822 0.0734 -0.9212
vn 0.3822 0.0734 -0.9212
vn 0.9226 0.0442 0.3832
vn -0.9226 0.0442 0.3832
vn -0.9142 0.1187 -0.3876
vn -0.3827 0.0233 -0.9236
vn -0.3824 0.0234 -0.9237
vn -0.3822 0.0234 -0.9238
vn -0.3820 0.0234 -0.9239
vn -0.9228 0.0509 0.3818
vn -0.9228 0.0509 0.3819
vn -0.9228 0.0509 0.3820
vn 0.3817 0.0622 0.9222
vn 0.3818 0.0622 0.9221
vn 0.9230 0.0348 -0.3832
vn 0.9230 0.0348 -0.3833
vn -0.9231 0.0348 -0.3831
vn -0.9230 0.0348 -0.3832
vn -0.3814 0.0622 0.9223
vn -0.3824 0.0622 0.9219
vn 0.9228 0.0509 0.3819
vn 0.9227 0.0509 0.3821
vn -0.3810 0.1549 0.9115
vn 0.9178 0.1399 0.3716
vn 0.3774 0.1038 -0.9202
vn -0.3774 0.1038 -0.9202
vn -0.9178 0.1399 0.3716
vn 0.3810 0.1549 0.9115
vn 0.9142 0.1187 -0.3876
vn -0.0000 -1.0000 -0.0000
vn -0.0000 0.9977 -0.0674
vn -0.0000 0.9977 -0.0675
vt 0.500000 0.883704
vt 0.500000 0.671161
vt 0.545464 0.671442
vt 0.569008 0.883704
vt 0.569898 0.883704
vt 0.546342 0.671442
vt 0.500890 0.672121
vt 0.500890 0.883704
vt 0.455438 0.672799
vt 0.431882 0.883704
vt 0.545464 0.672799
vt 0.500000 0.673080
vt 0.454536 0.672799
vt 0.430992 0.883704
vt 0.534252 0.487803
vt 0.500000 0.488014
vt 0.454536 0.671442
vt 0.534252 0.486780
vt 0.500000 0.486568
vt 0.500000 0.278548
vt 0.523900 0.278102
vt 0.494680 0.487291
vt 0.528923 0.486780
vt 0.465748 0.487803
vt 0.465748 0.486780
vt 0.460436 0.487803
vt 0.525301 0.278102
vt 0.501456 0.277027
vt 0.503869 0.217994
vt 0.518881 0.218671
vt 0.476100 0.278102
vt 0.477610 0.275953
vt 0.523900 0.275953
vt 0.500000 0.275507
vt 0.476100 0.275953
vt 0.500000 0.217037
vt 0.484953 0.217317
vt 0.488856 0.217317
vt 0.500000 0.218951
vt 0.515047 0.218671
vt 0.484953 0.218671
vt 0.515047 0.217317
vt 0.569008 0.453401
vt 0.430992 0.453401
vt 0.500000 0.434345
vt 0.597592 0.499407
vt 0.402408 0.499407
vt 0.569008 0.545412
vt 0.430992 0.545412
vt 0.500000 0.564468
vt 0.484953 0.487413
vt 0.515047 0.487413
vt 0.500000 0.483267
vt 0.478721 0.497421
vt 0.521279 0.497421
vt 0.484953 0.507429
vt 0.515047 0.507429
vt 0.500000 0.511575
s 0
usemtl Bark.002
f 2/1/1 3/2/1 5/3/1
f 1/1/2 4/3/2 6/4/2
s 1
f 7/5/3 8/6/4 9/7/3
f 7/5/3 9/7/3 10/8/5
f 11/8/6 12/7/7 13/9/8
f 11/8/6 13/9/8 14/10/9
f 15/4/10 16/11/11 17/12/11
f 15/4/10 17/12/11 18/1/12
f 20/1/13 21/12/13 23/13/13
f 19/1/14 22/13/14 24/14/14
f 25/10/15 26/9/16 27/7/16
f 25/10/15 27/7/16 28/8/17
s 0
f 29/12/18 30/11/18 31/15/18
f 29/12/18 31/15/18 32/16/18
s 1
f 33/8/19 34/7/20 35/6/21
f 33/8/19 35/6/21 36/5/20
s 0
f 38/14/22 39/17/22 41/2/22
s 1
f 37/14/23 40/2/23 42/1/23
s 0
f 44/18/24 45/19/24 47/20/24
s 1
f 43/18/25 46/20/25 48/21/25
s 0
f 49/6/26 50/7/26 51/22/26
f 49/6/26 51/22/26 52/23/26
f 53/7/27 54/6/27 55/23/27
f 53/7/27 55/23/27 56/22/27
f 57/13/28 58/12/28 59/16/28
f 57/13/28 59/16/28 60/24/28
f 61/2/29 62/17/29 63/25/29
f 61/2/29 63/25/29 64/19/29
f 65/3/30 66/2/30 67/19/30
f 65/3/30 67/19/30 68/18/30
f 69/9/31 70/7/31 71/22/31
f 69/9/31 71/22/31 72/26/31
f 73/7/32 74/9/32 75/26/32
f 73/7/32 75/26/32 76/22/32
f 77/27/33 78/28/33 79/29/33
f 77/27/33 79/29/33 80/30/33
f 81/19/34 82/25/34 83/31/35
s 1
f 81/19/36 83/31/37 84/20/37
f 85/22/38 86/26/39 87/32/40
f 85/22/38 87/32/40 88/28/39
s 0
f 89/16/41 90/15/41 91/33/41
s 1
f 89/16/42 91/33/42 92/34/42
f 93/22/43 94/23/43 95/27/44
f 93/22/43 95/27/44 96/28/44
f 97/23/45 98/22/46 99/28/46
f 97/23/45 99/28/46 100/27/46
s 0
f 101/24/47 103/16/47 104/34/47
f 102/24/48 105/34/48 106/35/48
s 1
f 107/26/49 108/22/50 109/28/49
f 107/26/49 109/28/49 110/32/49
s 0
f 111/35/51 112/34/51 113/36/51
f 111/35/51 113/36/51 114/37/51
f 115/32/52 116/28/52 117/29/52
f 115/32/52 117/29/52 118/38/52
f 119/21/53 120/20/53 121/39/53
f 119/21/53 121/39/53 122/40/53
f 123/20/54 124/31/54 125/41/54
f 123/20/54 125/41/54 126/39/54
f 127/28/55 128/32/55 129/38/55
f 127/28/55 129/38/55 130/29/55
f 131/34/56 132/33/56 133/42/56
f 131/34/56 133/42/56 134/36/56
f 135/28/57 136/27/57 137/30/57
f 135/28/57 137/30/57 138/29/57
f 140/43/58 146/44/58 139/45/58
f 146/44/58 140/43/58 141/46/58
f 146/44/58 141/46/58 145/47/58
f 145/47/58 141/46/58 142/48/58
f 145/47/58 142/48/58 144/49/58
f 144/49/58 142/48/58 143/50/58
f 151/51/59 148/52/59 149/53/59
f 147/52/60 150/51/60 152/54/60
f 147/52/60 152/54/60 158/55/60
s 1
f 158/55/60 152/54/60 153/56/60
s 0
f 158/55/60 153/56/60 156/57/60
f 157/57/59 154/56/59 155/58/59
