# Blender 5.1.1
# www.blender.org
mtllib leave2.mtl
o Tree.1_Tree_2_0
v -0.871096 7.295993 -0.871094
v -0.871095 3.525768 -0.871095
v 0.871095 3.525768 0.871095
v 0.871095 7.295993 0.871095
v -0.871009 7.295993 -0.871181
v 0.871182 7.295993 0.871008
v 0.871183 3.525768 0.871007
v -0.871008 3.525768 -0.871182
v -0.871096 7.295993 -0.871094
v 0.871095 7.295993 0.871095
v 0.871182 7.295993 0.871008
v -0.871009 7.295993 -0.871181
v -0.871095 3.525768 -0.871095
v -0.871096 7.295993 -0.871094
v -0.871009 7.295993 -0.871181
v -0.871008 3.525768 -0.871182
v 0.871095 3.525768 0.871095
v -0.871095 3.525768 -0.871095
v -0.871008 3.525768 -0.871182
v 0.871183 3.525768 0.871007
v 0.871095 7.295993 0.871095
v 0.871095 3.525768 0.871095
v 0.871183 3.525768 0.871007
v 0.871182 7.295993 0.871008
v -0.000000 7.295993 1.231914
v 0.000000 3.525768 1.231914
v 0.000000 3.525768 -1.231914
v -0.000000 7.295993 -1.231914
v -0.000123 7.295993 1.231914
v -0.000124 7.295993 -1.231914
v -0.000123 3.525768 -1.231914
v -0.000123 3.525768 1.231914
v -0.000000 7.295993 1.231914
v -0.000000 7.295993 -1.231914
v -0.000124 7.295993 -1.231914
v -0.000123 7.295993 1.231914
v 0.000000 3.525768 1.231914
v 0.000000 3.525768 1.231914
v -0.000000 7.295993 1.231914
v -0.000123 7.295993 1.231914
v -0.000123 7.295993 1.231914
v -0.000123 3.525768 1.231914
v 0.000000 3.525768 -1.231914
v 0.000000 3.525768 1.231914
v -0.000123 3.525768 1.231914
v -0.000123 3.525768 -1.231914
v -0.000000 7.295993 -1.231914
v 0.000000 3.525768 -1.231914
v -0.000123 3.525768 -1.231914
v -0.000124 7.295993 -1.231914
v 1.231914 7.295993 -0.000000
v 1.231915 3.525768 -0.000000
v -1.231914 3.525768 0.000000
v -1.231915 7.295993 0.000000
v 1.231914 7.295993 0.000123
v -1.231915 7.295993 0.000124
v -1.231914 3.525768 0.000123
v 1.231914 3.525768 0.000123
v 1.231914 7.295993 -0.000000
v -1.231915 7.295993 0.000000
v -1.231915 7.295993 0.000124
v 1.231914 7.295993 0.000123
v 1.231915 3.525768 -0.000000
v 1.231914 7.295993 -0.000000
v 1.231914 7.295993 0.000123
v 1.231914 3.525768 0.000123
v -1.231914 3.525768 0.000000
v 1.231915 3.525768 -0.000000
v 1.231914 3.525768 0.000123
v -1.231914 3.525768 0.000123
v -1.231915 7.295993 0.000000
v -1.231914 3.525768 0.000000
v -1.231914 3.525768 0.000123
v -1.231915 7.295993 0.000124
v 0.871094 7.295993 -0.871095
v 0.871095 3.525768 -0.871095
v -0.871095 3.525767 0.871095
v -0.871095 7.295993 0.871095
v 0.871182 7.295993 -0.871008
v -0.871008 7.295993 0.871182
v -0.871008 3.525767 0.871182
v 0.871182 3.525768 -0.871008
v 0.871094 7.295993 -0.871095
v -0.871095 7.295993 0.871095
v -0.871008 7.295993 0.871182
v 0.871182 7.295993 -0.871008
v 0.871095 3.525768 -0.871095
v 0.871094 7.295993 -0.871095
v 0.871182 7.295993 -0.871008
v 0.871182 3.525768 -0.871008
v -0.871095 3.525767 0.871095
v 0.871095 3.525768 -0.871095
v 0.871182 3.525768 -0.871008
v -0.871008 3.525767 0.871182
v -0.871095 7.295993 0.871095
v -0.871095 3.525767 0.871095
v -0.871008 3.525767 0.871182
v -0.871008 7.295993 0.871182
vn -0.7071 -0.0000 0.7071
vn 0.7071 -0.0000 -0.7071
vn -0.0000 1.0000 -0.0000
vn -0.7071 -0.0000 -0.7071
vn -0.0000 -1.0000 -0.0000
vn 0.7071 -0.0000 0.7071
vn 1.0000 -0.0000 -0.0000
vn -1.0000 -0.0000 -0.0000
vn 0.0005 -0.0000 1.0000
vn 0.0001 -0.0000 1.0000
vn 0.0003 -1.0000 0.0003
vn -0.0002 -1.0000 -0.0002
vn -0.0001 -1.0000 -0.0001
vn -0.0002 -0.0000 -1.0000
vn -0.0003 -0.0000 -1.0000
vn -0.0001 -0.0000 -1.0000
vn -0.0000 -0.0000 -1.0000
vn -0.0000 -0.0000 1.0000
vn 1.0000 -0.0000 0.0002
vn 1.0000 -0.0000 0.0001
vn 1.0000 -0.0000 0.0003
vn -1.0000 -0.0000 -0.0001
vt 0.102935 0.057122
vt 0.102935 0.865868
vt 0.896784 0.865868
vt 0.896784 0.057122
s 0
usemtl Tree_2.001
f 1/1/1 2/2/1 3/3/1
f 1/1/1 3/3/1 4/4/1
f 5/1/2 6/4/2 7/3/2
f 5/1/2 7/3/2 8/2/2
f 9/1/3 10/4/3 11/4/3
f 9/1/3 11/4/3 12/1/3
f 13/2/4 14/1/4 15/1/4
f 13/2/4 15/1/4 16/2/4
f 17/3/5 18/2/5 19/2/5
f 17/3/5 19/2/5 20/3/5
f 21/4/6 22/3/6 23/3/6
f 21/4/6 23/3/6 24/4/6
f 25/1/7 26/2/7 27/3/7
f 25/1/7 27/3/7 28/4/7
f 29/1/8 30/4/8 31/3/8
f 29/1/8 31/3/8 32/2/8
s 1
f 33/1/3 34/4/3 35/4/3
f 33/1/3 35/4/3 36/1/3
s 0
f 37/2/9 39/1/9 40/1/9
f 38/2/10 41/1/10 42/2/10
s 1
f 43/3/5 44/2/11 45/2/12
f 43/3/5 45/2/12 46/3/13
f 47/4/14 48/3/15 49/3/16
f 47/4/14 49/3/16 50/4/14
s 0
f 51/1/17 52/2/17 53/3/17
f 51/1/17 53/3/17 54/4/17
f 55/1/18 56/4/18 57/3/18
f 55/1/18 57/3/18 58/2/18
s 1
f 59/1/3 60/4/3 61/4/3
f 59/1/3 61/4/3 62/1/3
f 63/2/19 64/1/20 65/1/21
f 63/2/19 65/1/21 66/2/19
f 67/3/5 68/2/5 69/2/5
f 67/3/5 69/2/5 70/3/5
s 0
f 71/4/22 72/3/22 73/3/22
f 71/4/22 73/3/22 74/4/22
f 75/1/4 76/2/4 77/3/4
f 75/1/4 77/3/4 78/4/4
f 79/1/6 80/4/6 81/3/6
f 79/1/6 81/3/6 82/2/6
f 83/1/3 84/4/3 85/4/3
f 83/1/3 85/4/3 86/1/3
f 87/2/2 88/1/2 89/1/2
f 87/2/2 89/1/2 90/2/2
f 91/3/5 92/2/5 93/2/5
f 91/3/5 93/2/5 94/3/5
f 95/4/1 96/3/1 97/3/1
f 95/4/1 97/3/1 98/4/1
