# Blender 5.1.1
# www.blender.org
mtllib leave1.mtl
o Tree_Tree_1_0
v -70.709320 878.302002 -69.983330
v -70.709152 402.258911 -69.983238
v 70.712212 402.258972 71.438072
v 70.712044 878.302002 71.437981
v -70.702248 878.302002 -69.990395
v 70.719116 878.302002 71.430916
v 70.719284 402.258972 71.431007
v -70.702087 402.258911 -69.990303
v -70.709320 878.302002 -69.983330
v -70.709320 878.302002 -69.983330
v 70.712044 878.302002 71.437981
v 70.719116 878.302002 71.430916
v 70.719116 878.302002 71.430916
v -70.702248 878.302002 -69.990395
v -70.709152 402.258911 -69.983238
v -70.709152 402.258911 -69.983238
v -70.709320 878.302002 -69.983330
v -70.702248 878.302002 -69.990395
v -70.702248 878.302002 -69.990395
v -70.702087 402.258911 -69.990303
v 70.712212 402.258972 71.438072
v -70.709152 402.258911 -69.983238
v -70.702087 402.258911 -69.990303
v 70.719284 402.258972 71.431007
v 70.712044 878.302002 71.437981
v 70.712044 878.302002 71.437981
v 70.712212 402.258972 71.438072
v 70.719284 402.258972 71.431007
v 70.719284 402.258972 71.431007
v 70.719116 878.302002 71.430916
v -0.000102 878.302002 100.723785
v 0.000054 402.258942 100.723877
v 0.000080 402.258911 -99.276108
v -0.000075 878.302002 -99.276199
v -0.010102 878.302002 100.723785
v -0.010075 878.302002 -99.276199
v -0.009920 402.258911 -99.276108
v -0.009946 402.258942 100.723877
v -0.000102 878.302002 100.723785
v -0.000075 878.302002 -99.276199
v -0.010075 878.302002 -99.276199
v -0.010102 878.302002 100.723785
v 0.000054 402.258942 100.723877
v -0.000102 878.302002 100.723785
v -0.010102 878.302002 100.723785
v -0.009946 402.258942 100.723877
v 0.000080 402.258911 -99.276108
v 0.000054 402.258942 100.723877
v -0.009946 402.258942 100.723877
v -0.009920 402.258911 -99.276108
v -0.000075 878.302002 -99.276199
v 0.000080 402.258911 -99.276108
v -0.009920 402.258911 -99.276108
v -0.010075 878.302002 -99.276199
v 99.999893 878.302002 0.723790
v 100.000069 402.258972 0.723903
v -99.999916 402.258911 0.723886
v -100.000092 878.302002 0.723772
v 99.999893 878.302002 0.733790
v -100.000092 878.302002 0.733772
v -99.999916 402.258911 0.733886
v 100.000069 402.258972 0.733903
v 99.999893 878.302002 0.723790
v -100.000092 878.302002 0.723772
v -100.000092 878.302002 0.733772
v 99.999893 878.302002 0.733790
v 100.000069 402.258972 0.723903
v 99.999893 878.302002 0.723790
v 99.999893 878.302002 0.733790
v 100.000069 402.258972 0.733903
v -99.999916 402.258911 0.723886
v 100.000069 402.258972 0.723903
v 100.000069 402.258972 0.733903
v -99.999916 402.258911 0.733886
v -100.000092 878.302002 0.723772
v -99.999916 402.258911 0.723886
v -99.999916 402.258911 0.733886
v -100.000092 878.302002 0.733772
v 70.707039 878.302002 -69.985405
v 70.707214 402.258911 -69.985329
v -70.714127 402.258911 71.436005
v -70.714310 878.302002 71.435928
v 70.714104 878.302002 -69.978340
v -70.707245 878.302002 71.442993
v -70.707062 402.258911 71.443077
v 70.714279 402.258911 -69.978256
v 70.707039 878.302002 -69.985405
v -70.714310 878.302002 71.435928
v -70.707245 878.302002 71.442993
v 70.714104 878.302002 -69.978340
v 70.707214 402.258911 -69.985329
v 70.707214 402.258911 -69.985329
v 70.707039 878.302002 -69.985405
v 70.714104 878.302002 -69.978340
v 70.714104 878.302002 -69.978340
v 70.714279 402.258911 -69.978256
v -70.714127 402.258911 71.436005
v -70.714127 402.258911 71.436005
v 70.707214 402.258911 -69.985329
v 70.714279 402.258911 -69.978256
v 70.714279 402.258911 -69.978256
v -70.707062 402.258911 71.443077
v -70.714310 878.302002 71.435928
v -70.714127 402.258911 71.436005
v -70.707062 402.258911 71.443077
v -70.707245 878.302002 71.442993
vn -0.7071 -0.0000 0.7071
vn 0.7071 -0.0000 -0.7071
vn -0.0000 1.0000 -0.0003
vn -0.0000 1.0000 -0.0000
vn -0.7071 -0.0000 -0.7071
vn -0.7072 -0.0000 -0.7070
vn -0.0000 -1.0000 -0.0000
vn 0.7072 -0.0000 0.7070
vn 0.7071 -0.0000 0.7071
vn 1.0000 -0.0000 -0.0000
vn -1.0000 -0.0000 -0.0000
vn -0.0000 -0.0000 1.0000
vn -0.0000 -0.0000 -1.0000
vn 0.7072 -0.0000 -0.7070
vn -0.0000 -1.0000 -0.0002
vn -0.7069 -0.0000 0.7073
vn -0.7070 -0.0000 0.7073
vn -0.7070 -0.0000 0.7072
vt 0.240378 0.081686
vt 0.240378 0.874998
vt 0.758494 0.874998
vt 0.758494 0.081686
s 0
usemtl Tree_1
f 1/1/1 2/2/1 3/3/1
f 1/1/1 3/3/1 4/4/1
f 5/1/2 6/4/2 7/3/2
f 5/1/2 7/3/2 8/2/2
s 1
f 10/1/3 11/4/3 13/4/3
s 0
f 9/1/4 12/4/4 14/1/4
f 15/2/5 17/1/5 18/1/5
s 1
f 16/2/6 19/1/6 20/2/6
f 21/3/7 22/2/7 23/2/7
s 0
f 21/3/7 23/2/7 24/3/7
s 1
f 26/4/8 27/3/8 29/3/8
s 0
f 25/4/9 28/3/9 30/4/9
f 31/1/10 32/2/10 33/3/10
f 31/1/10 33/3/10 34/4/10
f 35/1/11 36/4/11 37/3/11
f 35/1/11 37/3/11 38/2/11
f 39/1/4 40/4/4 41/4/4
f 39/1/4 41/4/4 42/1/4
f 43/2/12 44/1/12 45/1/12
f 43/2/12 45/1/12 46/2/12
f 47/3/7 48/2/7 49/2/7
f 47/3/7 49/2/7 50/3/7
f 51/4/13 52/3/13 53/3/13
f 51/4/13 53/3/13 54/4/13
f 55/1/13 56/2/13 57/3/13
f 55/1/13 57/3/13 58/4/13
f 59/1/12 60/4/12 61/3/12
f 59/1/12 61/3/12 62/2/12
f 63/1/4 64/4/4 65/4/4
f 63/1/4 65/4/4 66/1/4
f 67/2/10 68/1/10 69/1/10
f 67/2/10 69/1/10 70/2/10
f 71/3/7 72/2/7 73/2/7
f 71/3/7 73/2/7 74/3/7
f 75/4/11 76/3/11 77/3/11
f 75/4/11 77/3/11 78/4/11
f 79/1/5 80/2/5 81/3/5
f 79/1/5 81/3/5 82/4/5
f 83/1/9 84/4/9 85/3/9
f 83/1/9 85/3/9 86/2/9
s 1
f 87/1/4 88/4/4 89/4/4
f 87/1/4 89/4/4 90/1/4
f 92/2/14 93/1/14 95/1/14
f 91/2/14 94/1/14 96/2/14
f 98/3/15 99/2/15 101/2/15
s 0
f 97/3/7 100/2/7 102/3/7
f 103/4/16 104/3/16 105/3/16
s 1
f 103/4/17 105/3/18 106/4/17
